# xmcd CD database file
#
# Track frame offsets:
#	150
#	16242
#	34970
#	54289
#	69582
#	85280
#	105247
#	119835
#	136762
#	157082
#	170857
#	193772
#	210582
#
# Disc length: 3029 seconds
#
# Revision: 0
# Processed by: cddbd v1.4PL0 Copyright (c) Steve Scherf et al.
# Submitted via: CDex 1.40Release
#
DISCID=b60bd30d
DTITLE=Jim Boyd - alterNATIVES
DYEAR=2001
DGENRE=Native American
TTITLE0=I'll Be There
TTITLE1=Manipulation
TTITLE2=Time-Time-Time
TTITLE3=Rebel Moon
TTITLE4=24 Hours In A Day
TTITLE5=Love and Trust
TTITLE6=Story Man
TTITLE7=Good-bye Go Away
TTITLE8=Belief
TTITLE9=Back Home
TTITLE10=The More We're Together
TTITLE11=Full Circle
TTITLE12=I'll Be There (with Annie Humphrey)
EXTD=YEAR: 2001 ID3G: 64
EXTT0=
EXTT1=
EXTT2=
EXTT3=
EXTT4=
EXTT5=
EXTT6=
EXTT7=
EXTT8=
EXTT9=
EXTT10=
EXTT11=
EXTT12=
PLAYORDER=
